<svg width="62" height="90" viewBox="0 0 62 90" fill="none" xmlns="http://www.w3.org/2000/svg">
<path d="M42.634 21.7866C43.3592 25.2999 42.9966 29.1666 41.6369 32.3462C40.2771 35.5259 37.9354 37.9597 35.2462 39C38.4944 36.6251 39.9901 30.8742 38.4944 26.4187C37.2253 22.6502 34.2793 20.2164 32.8591 16.5264C31.6354 13.3271 31.726 8.81278 33.0858 5.71163C34.4001 2.68898 37.6333 0.5692 40.1714 0C38.2678 0.431807 37.6937 5.61349 37.7541 7.43885C37.9052 12.7579 41.5915 16.7031 42.6491 21.7866H42.634Z" fill="#593A2E"/>
<path d="M34.5393 29.1978C35.2692 31.1809 35.1268 33.504 34.1476 35.3738C33.1684 37.2435 31.388 38.6034 29.4118 39C31.8865 37.1491 32.7767 33.2584 31.3524 30.4254C30.7115 29.1223 29.661 28.0646 28.9667 26.7803C27.9697 24.9483 27.5068 21.7942 28.7531 20C29.7857 20.7555 30.2664 22.7008 30.9963 23.834C32.1714 25.6282 33.7559 27.1203 34.5215 29.1978H34.5393Z" fill="#593A2E"/>
<path d="M6.71479 50.1905C6.63675 48.4539 6.57431 46.7366 6.49627 45H51.0741C54.7108 45 58.3476 45.1158 62 45.1158V46.9874C62 60.2434 55.3196 71.3189 47.4841 79.5774C52.073 79.5774 56.7556 79.0178 61.3444 79.5002C60.9854 82.8962 59.3622 86.0799 57.0365 87.9516C54.3518 90.132 51.4018 89.7461 48.3738 89.9197C45.5955 90.0741 42.8016 89.9583 40.0233 89.9583C31.9849 89.9583 23.9465 89.8811 15.9238 89.8811C11.9592 89.8811 6.77722 84.4977 7.62008 79.2108C11.9592 78.7863 16.4545 79.1336 20.8248 79.1529C20.9809 79.3651 21.0902 79.5581 21.0902 79.6739C21.0902 79.5002 21.1214 79.3265 21.1214 79.1529C21.0278 79.1529 20.9185 79.1529 20.8248 79.1529C19.9508 77.9759 17.0788 75.699 16.6418 75.1009C12.3182 75.9499 7.72934 74.5799 4.20183 71.3382C2.84389 70.084 1.62643 68.5597 0.861614 66.688C-1.69817 60.4749 1.79812 52.6217 6.71479 50.1712V50.1905ZM6.80844 68.0194C8.60341 69.6788 10.8823 70.3928 13.1143 70.4314C12.9426 70.4314 12.7709 70.3156 12.568 70.1419C11.3505 69.0035 9.72723 64.8164 9.38384 63.9288C8.33807 61.1696 8.05712 57.5806 7.43278 54.6284C5.29442 55.4195 3.82722 58.1788 3.7804 60.938C3.74918 63.6973 4.99786 66.36 6.79283 68.0194H6.80844Z" fill="#593A2E"/>
</svg>
