<svg width="32" height="36" viewBox="0 0 32 36" fill="none" xmlns="http://www.w3.org/2000/svg">
<path d="M28.5343 20.0762C28.5746 19.3816 28.6068 18.6946 28.6471 18H5.63919C3.76215 18 1.8851 18.0463 0 18.0463V18.795C0 24.0974 3.44796 28.5276 7.49207 31.831C5.12361 31.831 2.70681 31.6071 0.338351 31.8001C0.523639 33.1585 1.36146 34.432 2.5618 35.1806C3.94743 36.0528 5.47001 35.8984 7.03288 35.9679C8.46684 36.0296 9.90886 35.9833 11.3428 35.9833C15.4917 35.9833 19.6405 35.9525 23.7813 35.9525C25.8275 35.9525 28.5021 33.7991 28.0671 31.6843C25.8275 31.5145 23.5074 31.6534 21.2517 31.6612C21.1711 31.7461 21.1147 31.8232 21.1147 31.8695C21.1147 31.8001 21.0986 31.7306 21.0986 31.6612C21.147 31.6612 21.2034 31.6612 21.2517 31.6612C21.7028 31.1903 23.1851 30.2796 23.4107 30.0403C25.6422 30.3799 28.0107 29.8319 29.8313 28.5353C30.5322 28.0336 31.1606 27.4239 31.5553 26.6752C32.8765 24.19 31.0719 21.0487 28.5343 20.0685V20.0762ZM28.486 27.2078C27.5595 27.8715 26.3834 28.1571 25.2313 28.1725C25.32 28.1725 25.4086 28.1262 25.5133 28.0568C26.1417 27.6014 26.9795 25.9266 27.1567 25.5715C27.6965 24.4678 27.8415 23.0322 28.1637 21.8514C29.2674 22.1678 30.0247 23.2715 30.0488 24.3752C30.0649 25.4789 29.4205 26.544 28.494 27.2078H28.486Z" fill="white"/>
<path d="M9.23292 8.9381C8.77144 10.3795 9.00218 11.9658 9.86746 13.2703C10.7327 14.5747 12.2229 15.5732 13.9342 16C11.8672 15.0257 10.9154 12.6663 11.8672 10.8384C12.6748 9.2924 14.5495 8.29391 15.4533 6.78007C16.232 5.46754 16.1743 3.6155 15.3091 2.34323C14.4726 1.10317 12.4152 0.233518 10.8 0C12.0114 0.177151 12.3767 2.30297 12.3383 3.05184C12.2422 5.23402 9.8963 6.85254 9.22331 8.9381H9.23292Z" fill="white"/>
<path d="M14.2633 11.8728C13.8462 12.7078 13.9275 13.6859 14.4871 14.4732C15.0466 15.2604 16.064 15.833 17.1933 16C15.7791 15.2207 15.2705 13.5825 16.0843 12.3897C16.4506 11.841 17.0508 11.3956 17.4476 10.8549C18.0173 10.0835 18.2818 8.75547 17.5697 8C16.9796 8.31809 16.7049 9.13718 16.2878 9.61431C15.6164 10.3698 14.7109 10.998 14.2734 11.8728H14.2633Z" fill="white"/>
</svg>
